<svg width="715" height="106" viewBox="0 0 715 106" fill="none" xmlns="http://www.w3.org/2000/svg">
<g filter="url(#filter0_d_130_140)">
<rect x="4" width="707" height="98" rx="3" fill="#394F98"/>
<path d="M81.7031 44H69.6401V42.8662L75.3091 36.96C76.2144 36.0195 76.9746 35.1714 77.5898 34.4155C78.2139 33.6509 78.6841 32.8862 79.0005 32.1216C79.3257 31.3569 79.4883 30.5 79.4883 29.5508C79.4883 28.3115 79.1235 27.3491 78.394 26.6636C77.6733 25.978 76.6934 25.6353 75.4541 25.6353C74.6191 25.6353 73.8149 25.7847 73.0415 26.0835C72.2769 26.3823 71.5298 26.8218 70.8003 27.4019L70.062 26.4658C70.5981 26.0264 71.1606 25.6572 71.7495 25.3584C72.3472 25.0596 72.958 24.8354 73.582 24.686C74.2061 24.5278 74.8301 24.4487 75.4541 24.4487C76.5527 24.4487 77.502 24.6597 78.3018 25.0815C79.1104 25.4946 79.7388 26.0791 80.187 26.835C80.6353 27.5908 80.8594 28.4785 80.8594 29.498C80.8594 30.5527 80.6748 31.5107 80.3057 32.3721C79.9453 33.2246 79.4312 34.0596 78.7632 34.877C78.0952 35.6943 77.3042 36.5732 76.3901 37.5137L71.3672 42.708V42.7607H81.7031V44ZM85.2759 35.7866C85.2759 34.3452 85.3857 33.0312 85.6055 31.8447C85.834 30.6494 86.168 29.5947 86.6074 28.6807C87.0469 27.7578 87.6006 26.98 88.2686 26.3472C88.9365 25.7144 89.7188 25.2354 90.6152 24.9102C91.5117 24.585 92.5181 24.4224 93.6343 24.4224C94.1177 24.4224 94.5791 24.4487 95.0186 24.5015C95.458 24.5542 95.8447 24.6289 96.1787 24.7256V25.9385C95.8535 25.8242 95.4756 25.7363 95.0449 25.6748C94.6143 25.6045 94.1528 25.5693 93.6606 25.5693C92.1489 25.5693 90.8789 25.9209 89.8506 26.624C88.8223 27.3184 88.0356 28.3599 87.4907 29.7485C86.9546 31.1284 86.6558 32.8423 86.5942 34.8901H86.6865C86.9414 34.4155 87.2974 33.9629 87.7544 33.5322C88.2202 33.1016 88.7959 32.75 89.4814 32.4775C90.1758 32.2051 90.9932 32.0688 91.9336 32.0688C93.0938 32.0688 94.0913 32.3018 94.9263 32.7676C95.77 33.2334 96.416 33.9014 96.8643 34.7715C97.3213 35.6416 97.5498 36.6743 97.5498 37.8696C97.5498 39.1528 97.3125 40.2734 96.8379 41.2314C96.3721 42.1895 95.6953 42.9365 94.8076 43.4727C93.9287 44 92.8696 44.2637 91.6304 44.2637C90.5757 44.2637 89.6528 44.0483 88.8618 43.6177C88.0708 43.187 87.4072 42.585 86.8711 41.8115C86.3438 41.0381 85.9438 40.1416 85.6714 39.1221C85.4077 38.0938 85.2759 36.9819 85.2759 35.7866ZM91.6172 43.1035C93.0674 43.1035 94.1924 42.6509 94.9922 41.7456C95.8008 40.8315 96.2051 39.5396 96.2051 37.8696C96.2051 36.4282 95.8359 35.29 95.0977 34.4551C94.3594 33.6113 93.2432 33.1895 91.749 33.1895C90.7119 33.1895 89.8154 33.396 89.0596 33.8091C88.3125 34.2222 87.7368 34.7363 87.3325 35.3516C86.9282 35.958 86.7261 36.5557 86.7261 37.1445C86.7261 37.6982 86.8052 38.3135 86.9634 38.9902C87.1216 39.667 87.3896 40.3218 87.7676 40.9546C88.1455 41.5786 88.6465 42.0928 89.2705 42.4971C89.9033 42.9014 90.6855 43.1035 91.6172 43.1035ZM112.843 34.3101C112.843 35.9185 112.72 37.3423 112.474 38.5815C112.228 39.8208 111.854 40.8623 111.353 41.7061C110.852 42.5498 110.215 43.187 109.441 43.6177C108.668 44.0483 107.754 44.2637 106.699 44.2637C105.363 44.2637 104.238 43.8901 103.324 43.1431C102.41 42.396 101.716 41.2842 101.241 39.8076C100.775 38.3311 100.542 36.4985 100.542 34.3101C100.542 32.3589 100.74 30.6406 101.136 29.1553C101.54 27.6699 102.195 26.5098 103.1 25.6748C104.005 24.8398 105.209 24.4224 106.712 24.4224C108.207 24.4224 109.402 24.8311 110.298 25.6484C111.204 26.4658 111.854 27.6172 112.25 29.1025C112.645 30.5791 112.843 32.3149 112.843 34.3101ZM101.887 34.3101C101.887 36.2876 102.059 37.9268 102.401 39.2275C102.744 40.5195 103.271 41.4863 103.983 42.1279C104.695 42.7695 105.601 43.0903 106.699 43.0903C107.833 43.0903 108.751 42.7695 109.455 42.1279C110.158 41.4863 110.672 40.5151 110.997 39.2144C111.331 37.9136 111.498 36.2788 111.498 34.3101C111.498 32.4995 111.353 30.9438 111.063 29.6431C110.782 28.3423 110.294 27.3447 109.6 26.6504C108.905 25.9561 107.943 25.6089 106.712 25.6089C105.508 25.6089 104.555 25.9648 103.852 26.6768C103.148 27.3887 102.643 28.395 102.335 29.6958C102.037 30.9966 101.887 32.5347 101.887 34.3101ZM127.358 29.1685C127.358 30.021 127.182 30.7725 126.831 31.4229C126.479 32.0732 125.996 32.605 125.38 33.0181C124.774 33.4312 124.075 33.7124 123.284 33.8618V33.9409C124.796 34.1343 125.952 34.6309 126.751 35.4307C127.551 36.2217 127.951 37.3027 127.951 38.6738C127.951 39.7549 127.696 40.7173 127.187 41.561C126.677 42.4048 125.908 43.0684 124.879 43.5518C123.86 44.0264 122.577 44.2637 121.03 44.2637C119.984 44.2637 119.013 44.167 118.116 43.9736C117.22 43.7803 116.402 43.5122 115.664 43.1694V41.8643C116.394 42.2246 117.233 42.5234 118.182 42.7607C119.14 42.9893 120.094 43.1035 121.043 43.1035C122.906 43.1035 124.291 42.7036 125.196 41.9038C126.101 41.0952 126.554 40.0142 126.554 38.6606C126.554 37.6763 126.312 36.8896 125.829 36.3008C125.345 35.7031 124.664 35.2681 123.785 34.9956C122.915 34.7231 121.891 34.5869 120.713 34.5869H118.604V33.4136H120.727C121.72 33.4136 122.612 33.2598 123.403 32.9521C124.194 32.6357 124.818 32.1699 125.275 31.5547C125.741 30.9307 125.974 30.1572 125.974 29.2344C125.974 28.0391 125.591 27.1382 124.827 26.5317C124.071 25.9253 123.06 25.6221 121.794 25.6221C121.118 25.6221 120.48 25.6924 119.883 25.833C119.294 25.9736 118.723 26.1802 118.169 26.4526C117.624 26.7163 117.079 27.0371 116.534 27.415L115.849 26.4526C116.604 25.8726 117.475 25.3936 118.459 25.0156C119.452 24.6377 120.56 24.4487 121.781 24.4487C123.53 24.4487 124.897 24.8706 125.881 25.7144C126.866 26.5581 127.358 27.7095 127.358 29.1685Z" fill="white"/>
<path d="M31.5312 67L28.3848 59.0898H28.3555C28.3633 59.2344 28.3691 59.3867 28.373 59.5469C28.3809 59.7031 28.3867 59.8672 28.3906 60.0391C28.3945 60.2109 28.3965 60.3906 28.3965 60.5781V67H27.8223V58.4336H28.7363L31.7715 66.0625H31.8066L34.8652 58.4336H35.7559V67H35.1641V60.5078C35.1641 60.3555 35.166 60.1992 35.1699 60.0391C35.1738 59.8789 35.1777 59.7207 35.1816 59.5645C35.1895 59.4043 35.1973 59.25 35.2051 59.1016H35.1699L32.0117 67H31.5312ZM40.2559 60.5195C40.9551 60.5195 41.4785 60.6953 41.8262 61.0469C42.1738 61.3984 42.3477 61.959 42.3477 62.7285V67H41.8906L41.7852 65.8867H41.75C41.6133 66.125 41.4473 66.3379 41.252 66.5254C41.0566 66.709 40.8164 66.8535 40.5312 66.959C40.25 67.0645 39.9062 67.1172 39.5 67.1172C39.0898 67.1172 38.7383 67.0488 38.4453 66.9121C38.1562 66.7754 37.9316 66.5762 37.7715 66.3145C37.6152 66.0527 37.5371 65.7344 37.5371 65.3594C37.5371 64.7266 37.7988 64.2461 38.3223 63.918C38.8457 63.5859 39.5977 63.3984 40.5781 63.3555L41.7617 63.2969V62.834C41.7617 62.1816 41.6328 61.7168 41.375 61.4395C41.1172 61.1621 40.7363 61.0234 40.2324 61.0234C39.9043 61.0234 39.5879 61.0664 39.2832 61.1523C38.9824 61.2344 38.6758 61.3535 38.3633 61.5098L38.1758 61.0176C38.4805 60.873 38.8066 60.7539 39.1543 60.6602C39.5059 60.5664 39.873 60.5195 40.2559 60.5195ZM41.7559 63.7598L40.6426 63.8066C39.834 63.8457 39.2188 63.9902 38.7969 64.2402C38.375 64.4902 38.1641 64.8652 38.1641 65.3652C38.1641 65.7676 38.2891 66.0762 38.5391 66.291C38.793 66.5059 39.1445 66.6133 39.5938 66.6133C40.293 66.6133 40.8262 66.4141 41.1934 66.0156C41.5645 65.6172 41.752 65.0742 41.7559 64.3867V63.7598ZM48.1484 60.6309V61.1523H44.9961V67H44.3984V60.6309H48.1484ZM51.6816 60.5195C52.3809 60.5195 52.9043 60.6953 53.252 61.0469C53.5996 61.3984 53.7734 61.959 53.7734 62.7285V67H53.3164L53.2109 65.8867H53.1758C53.0391 66.125 52.873 66.3379 52.6777 66.5254C52.4824 66.709 52.2422 66.8535 51.957 66.959C51.6758 67.0645 51.332 67.1172 50.9258 67.1172C50.5156 67.1172 50.1641 67.0488 49.8711 66.9121C49.582 66.7754 49.3574 66.5762 49.1973 66.3145C49.041 66.0527 48.9629 65.7344 48.9629 65.3594C48.9629 64.7266 49.2246 64.2461 49.748 63.918C50.2715 63.5859 51.0234 63.3984 52.0039 63.3555L53.1875 63.2969V62.834C53.1875 62.1816 53.0586 61.7168 52.8008 61.4395C52.543 61.1621 52.1621 61.0234 51.6582 61.0234C51.3301 61.0234 51.0137 61.0664 50.709 61.1523C50.4082 61.2344 50.1016 61.3535 49.7891 61.5098L49.6016 61.0176C49.9062 60.873 50.2324 60.7539 50.5801 60.6602C50.9316 60.5664 51.2988 60.5195 51.6816 60.5195ZM53.1816 63.7598L52.0684 63.8066C51.2598 63.8457 50.6445 63.9902 50.2227 64.2402C49.8008 64.4902 49.5898 64.8652 49.5898 65.3652C49.5898 65.7676 49.7148 66.0762 49.9648 66.291C50.2188 66.5059 50.5703 66.6133 51.0195 66.6133C51.7188 66.6133 52.252 66.4141 52.6191 66.0156C52.9902 65.6172 53.1777 65.0742 53.1816 64.3867V63.7598ZM57.2832 60.5078C57.7207 60.5078 58.0938 60.5723 58.4023 60.7012C58.7109 60.8301 58.9453 61.0176 59.1055 61.2637C59.2695 61.5059 59.3516 61.8008 59.3516 62.1484C59.3516 62.5156 59.2539 62.8203 59.0586 63.0625C58.8633 63.3008 58.5879 63.4707 58.2324 63.5723V63.6074C58.5293 63.6738 58.7773 63.7793 58.9766 63.9238C59.1797 64.0684 59.332 64.25 59.4336 64.4688C59.5352 64.6836 59.5859 64.9316 59.5859 65.2129C59.5859 65.6035 59.4863 65.9414 59.2871 66.2266C59.0918 66.5117 58.8125 66.7324 58.4492 66.8887C58.0859 67.041 57.6504 67.1172 57.1426 67.1172C56.8613 67.1172 56.5957 67.0996 56.3457 67.0645C56.0957 67.0293 55.8691 66.9805 55.666 66.918C55.4668 66.8516 55.293 66.7793 55.1445 66.7012V66.1211C55.4297 66.2734 55.7383 66.3926 56.0703 66.4785C56.4062 66.5645 56.7637 66.6074 57.1426 66.6074C57.502 66.6074 57.8203 66.5547 58.0977 66.4492C58.375 66.3438 58.5938 66.1855 58.7539 65.9746C58.9141 65.7637 58.9941 65.498 58.9941 65.1777C58.9941 64.873 58.9219 64.627 58.7773 64.4395C58.6328 64.248 58.4199 64.1094 58.1387 64.0234C57.8574 63.9336 57.5098 63.8887 57.0957 63.8887H56.2402V63.3789H57.0312C57.5625 63.3789 57.9863 63.2832 58.3027 63.0918C58.6191 62.8965 58.7773 62.5938 58.7773 62.1836C58.7773 61.8047 58.6465 61.5176 58.3848 61.3223C58.127 61.123 57.752 61.0234 57.2598 61.0234C56.9121 61.0234 56.6016 61.0645 56.3281 61.1465C56.0547 61.2246 55.7734 61.3301 55.4844 61.4629L55.2676 60.9648C55.5645 60.8281 55.875 60.7188 56.1992 60.6367C56.5273 60.5508 56.8887 60.5078 57.2832 60.5078ZM61.8242 60.6309V65.207C61.8242 65.2969 61.8223 65.3887 61.8184 65.4824C61.8184 65.5762 61.8164 65.6719 61.8125 65.7695C61.8125 65.8672 61.8105 65.9629 61.8066 66.0566C61.8027 66.1504 61.7969 66.2422 61.7891 66.332L65.5918 60.6309H66.3184V67H65.7559V62.3828C65.7559 62.2656 65.7559 62.1445 65.7559 62.0195C65.7598 61.8906 65.7637 61.7637 65.7676 61.6387C65.7715 61.5098 65.7754 61.3887 65.7793 61.2754L61.959 67H61.25V60.6309H61.8242ZM69.0547 60.6309V63.4199H73.0684V60.6309H73.6602V67H73.0684V63.9414H69.0547V67H68.457V60.6309H69.0547ZM81.0723 63.8066C81.0723 64.2988 81.0117 64.748 80.8906 65.1543C80.7695 65.5566 80.5898 65.9043 80.3516 66.1973C80.1133 66.4902 79.8164 66.7168 79.4609 66.877C79.1094 67.0371 78.6992 67.1172 78.2305 67.1172C77.7852 67.1172 77.3887 67.0391 77.041 66.8828C76.6934 66.7227 76.3984 66.4961 76.1562 66.2031C75.918 65.9102 75.7363 65.5625 75.6113 65.1602C75.4863 64.7539 75.4238 64.3027 75.4238 63.8066C75.4238 63.123 75.5371 62.5352 75.7637 62.043C75.9941 61.5469 76.3223 61.168 76.748 60.9062C77.1777 60.6406 77.6914 60.5078 78.2891 60.5078C78.9062 60.5078 79.4199 60.6484 79.8301 60.9297C80.2441 61.207 80.5547 61.5938 80.7617 62.0898C80.9688 62.5859 81.0723 63.1582 81.0723 63.8066ZM76.0332 63.8066C76.0332 64.3652 76.1133 64.8535 76.2734 65.2715C76.4336 65.6895 76.6758 66.0156 77 66.25C77.3281 66.4844 77.7422 66.6016 78.2422 66.6016C78.7539 66.6016 79.1738 66.4844 79.502 66.25C79.8301 66.0156 80.0723 65.6875 80.2285 65.2656C80.3848 64.8438 80.4629 64.3574 80.4629 63.8066C80.4629 63.2715 80.3887 62.7949 80.2402 62.377C80.0918 61.959 79.8574 61.6309 79.5371 61.3926C79.2168 61.1504 78.7988 61.0293 78.2832 61.0293C77.5449 61.0293 76.9844 61.2754 76.6016 61.7676C76.2227 62.2598 76.0332 62.9395 76.0332 63.8066ZM87.6055 62.1836C87.6055 62.5859 87.5 62.9023 87.2891 63.1328C87.082 63.3633 86.8066 63.5195 86.4629 63.6016V63.6367C86.8809 63.6992 87.2168 63.8574 87.4707 64.1113C87.7285 64.3613 87.8574 64.7207 87.8574 65.1895C87.8574 65.5605 87.7754 65.8809 87.6113 66.1504C87.4473 66.4199 87.1953 66.6289 86.8555 66.7773C86.5195 66.9258 86.0879 67 85.5605 67H82.8359V60.6309H85.4902C85.959 60.6309 86.3496 60.6914 86.6621 60.8125C86.9746 60.9297 87.209 61.1035 87.3652 61.334C87.5254 61.5605 87.6055 61.8438 87.6055 62.1836ZM87.2422 65.1895C87.2422 64.7324 87.0879 64.4043 86.7793 64.2051C86.4707 64.0059 86.0176 63.9062 85.4199 63.9062H83.4336V66.4961H85.4551C86.0527 66.4961 86.5 66.3906 86.7969 66.1797C87.0938 65.9648 87.2422 65.6348 87.2422 65.1895ZM87.002 62.2305C87.002 61.8945 86.8828 61.6309 86.6445 61.4395C86.4062 61.2441 86.002 61.1465 85.4316 61.1465H83.4336V63.3848H85.373C85.9355 63.3848 86.3477 63.2891 86.6094 63.0977C86.8711 62.9023 87.002 62.6133 87.002 62.2305ZM97.8301 60.6309V67H97.2383V61.1523H93.3477V67H92.75V60.6309H97.8301ZM105.248 63.8066C105.248 64.2988 105.188 64.748 105.066 65.1543C104.945 65.5566 104.766 65.9043 104.527 66.1973C104.289 66.4902 103.992 66.7168 103.637 66.877C103.285 67.0371 102.875 67.1172 102.406 67.1172C101.961 67.1172 101.564 67.0391 101.217 66.8828C100.869 66.7227 100.574 66.4961 100.332 66.2031C100.094 65.9102 99.9121 65.5625 99.7871 65.1602C99.6621 64.7539 99.5996 64.3027 99.5996 63.8066C99.5996 63.123 99.7129 62.5352 99.9395 62.043C100.17 61.5469 100.498 61.168 100.924 60.9062C101.354 60.6406 101.867 60.5078 102.465 60.5078C103.082 60.5078 103.596 60.6484 104.006 60.9297C104.42 61.207 104.73 61.5938 104.938 62.0898C105.145 62.5859 105.248 63.1582 105.248 63.8066ZM100.209 63.8066C100.209 64.3652 100.289 64.8535 100.449 65.2715C100.609 65.6895 100.852 66.0156 101.176 66.25C101.504 66.4844 101.918 66.6016 102.418 66.6016C102.93 66.6016 103.35 66.4844 103.678 66.25C104.006 66.0156 104.248 65.6875 104.404 65.2656C104.561 64.8438 104.639 64.3574 104.639 63.8066C104.639 63.2715 104.564 62.7949 104.416 62.377C104.268 61.959 104.033 61.6309 103.713 61.3926C103.393 61.1504 102.975 61.0293 102.459 61.0293C101.721 61.0293 101.16 61.2754 100.777 61.7676C100.398 62.2598 100.209 62.9395 100.209 63.8066ZM114.898 62.1836C114.898 62.5859 114.793 62.9023 114.582 63.1328C114.375 63.3633 114.1 63.5195 113.756 63.6016V63.6367C114.174 63.6992 114.51 63.8574 114.764 64.1113C115.021 64.3613 115.15 64.7207 115.15 65.1895C115.15 65.5605 115.068 65.8809 114.904 66.1504C114.74 66.4199 114.488 66.6289 114.148 66.7773C113.812 66.9258 113.381 67 112.854 67H110.129V60.6309H112.783C113.252 60.6309 113.643 60.6914 113.955 60.8125C114.268 60.9297 114.502 61.1035 114.658 61.334C114.818 61.5605 114.898 61.8438 114.898 62.1836ZM114.535 65.1895C114.535 64.7324 114.381 64.4043 114.072 64.2051C113.764 64.0059 113.311 63.9062 112.713 63.9062H110.727V66.4961H112.748C113.346 66.4961 113.793 66.3906 114.09 66.1797C114.387 65.9648 114.535 65.6348 114.535 65.1895ZM114.295 62.2305C114.295 61.8945 114.176 61.6309 113.938 61.4395C113.699 61.2441 113.295 61.1465 112.725 61.1465H110.727V63.3848H112.666C113.229 63.3848 113.641 63.2891 113.902 63.0977C114.164 62.9023 114.295 62.6133 114.295 62.2305ZM119.475 67.1172C118.842 67.1172 118.307 66.9863 117.869 66.7246C117.436 66.459 117.107 66.082 116.885 65.5938C116.666 65.1016 116.557 64.5195 116.557 63.8477C116.557 63.1484 116.684 62.5508 116.938 62.0547C117.191 61.5547 117.549 61.1719 118.01 60.9062C118.471 60.6406 119.012 60.5078 119.633 60.5078C119.938 60.5078 120.221 60.5352 120.482 60.5898C120.744 60.6445 120.98 60.7207 121.191 60.8184L121.033 61.3398C120.814 61.2422 120.582 61.168 120.336 61.1172C120.09 61.0664 119.854 61.041 119.627 61.041C119.104 61.041 118.658 61.1562 118.291 61.3867C117.928 61.6133 117.648 61.9375 117.453 62.3594C117.262 62.7773 117.166 63.2715 117.166 63.8418C117.166 64.377 117.248 64.8516 117.412 65.2656C117.576 65.6758 117.828 66 118.168 66.2383C118.508 66.4727 118.943 66.5898 119.475 66.5898C119.783 66.5898 120.076 66.5586 120.354 66.4961C120.635 66.4336 120.891 66.3535 121.121 66.2559V66.7949C120.914 66.8887 120.674 66.9648 120.4 67.0234C120.131 67.0859 119.822 67.1172 119.475 67.1172ZM125.041 60.5078C125.584 60.5078 126.035 60.6348 126.395 60.8887C126.758 61.1426 127.027 61.4902 127.203 61.9316C127.383 62.373 127.473 62.8789 127.473 63.4492V63.877H122.873C122.873 64.752 123.074 65.4238 123.477 65.8926C123.883 66.3613 124.463 66.5957 125.217 66.5957C125.611 66.5957 125.953 66.5645 126.242 66.502C126.535 66.4355 126.859 66.3242 127.215 66.168V66.7129C126.902 66.8535 126.59 66.9551 126.277 67.0176C125.965 67.084 125.605 67.1172 125.199 67.1172C124.555 67.1172 124.014 66.9844 123.576 66.7188C123.143 66.4492 122.814 66.0703 122.592 65.582C122.373 65.0938 122.264 64.5234 122.264 63.8711C122.264 63.2344 122.369 62.6621 122.58 62.1543C122.795 61.6465 123.107 61.2461 123.518 60.9531C123.932 60.6562 124.439 60.5078 125.041 60.5078ZM125.035 61.0176C124.426 61.0176 123.932 61.2207 123.553 61.627C123.178 62.0293 122.957 62.6113 122.891 63.373H126.857C126.857 62.9082 126.791 62.498 126.658 62.1426C126.525 61.7871 126.324 61.5117 126.055 61.3164C125.789 61.1172 125.449 61.0176 125.035 61.0176ZM129.805 60.6309V65.207C129.805 65.2969 129.803 65.3887 129.799 65.4824C129.799 65.5762 129.797 65.6719 129.793 65.7695C129.793 65.8672 129.791 65.9629 129.787 66.0566C129.783 66.1504 129.777 66.2422 129.77 66.332L133.572 60.6309H134.299V67H133.736V62.3828C133.736 62.2656 133.736 62.1445 133.736 62.0195C133.74 61.8906 133.744 61.7637 133.748 61.6387C133.752 61.5098 133.756 61.3887 133.76 61.2754L129.939 67H129.23V60.6309H129.805ZM133.695 58.082C133.672 58.457 133.582 58.7656 133.426 59.0078C133.273 59.25 133.057 59.4316 132.775 59.5527C132.494 59.6699 132.154 59.7285 131.756 59.7285C131.354 59.7285 131.016 59.6719 130.742 59.5586C130.473 59.4414 130.264 59.2617 130.115 59.0195C129.971 58.7734 129.889 58.4609 129.869 58.082H130.432C130.471 58.5117 130.594 58.8203 130.801 59.0078C131.012 59.1914 131.332 59.2832 131.762 59.2832C132.18 59.2832 132.502 59.1914 132.729 59.0078C132.959 58.8242 133.092 58.5156 133.127 58.082H133.695ZM141.805 58.4336C142.824 58.4336 143.588 58.6289 144.096 59.0195C144.604 59.4102 144.857 60.0176 144.857 60.8418C144.857 61.2637 144.789 61.6387 144.652 61.9668C144.52 62.291 144.318 62.5645 144.049 62.7871C143.779 63.0098 143.441 63.1777 143.035 63.291C142.633 63.4043 142.162 63.4609 141.623 63.4609H140.305V67H139.701V58.4336H141.805ZM141.74 58.9668H140.305V62.9277H141.564C142.119 62.9277 142.596 62.8652 142.994 62.7402C143.393 62.6113 143.699 62.3965 143.914 62.0957C144.129 61.7949 144.236 61.3848 144.236 60.8652C144.236 60.2051 144.033 59.7246 143.627 59.4238C143.221 59.1191 142.592 58.9668 141.74 58.9668ZM151.854 63.8066C151.854 64.2988 151.793 64.748 151.672 65.1543C151.551 65.5566 151.371 65.9043 151.133 66.1973C150.895 66.4902 150.598 66.7168 150.242 66.877C149.891 67.0371 149.48 67.1172 149.012 67.1172C148.566 67.1172 148.17 67.0391 147.822 66.8828C147.475 66.7227 147.18 66.4961 146.938 66.2031C146.699 65.9102 146.518 65.5625 146.393 65.1602C146.268 64.7539 146.205 64.3027 146.205 63.8066C146.205 63.123 146.318 62.5352 146.545 62.043C146.775 61.5469 147.104 61.168 147.529 60.9062C147.959 60.6406 148.473 60.5078 149.07 60.5078C149.688 60.5078 150.201 60.6484 150.611 60.9297C151.025 61.207 151.336 61.5938 151.543 62.0898C151.75 62.5859 151.854 63.1582 151.854 63.8066ZM146.814 63.8066C146.814 64.3652 146.895 64.8535 147.055 65.2715C147.215 65.6895 147.457 66.0156 147.781 66.25C148.109 66.4844 148.523 66.6016 149.023 66.6016C149.535 66.6016 149.955 66.4844 150.283 66.25C150.611 66.0156 150.854 65.6875 151.01 65.2656C151.166 64.8438 151.244 64.3574 151.244 63.8066C151.244 63.2715 151.17 62.7949 151.021 62.377C150.873 61.959 150.639 61.6309 150.318 61.3926C149.998 61.1504 149.58 61.0293 149.064 61.0293C148.326 61.0293 147.766 61.2754 147.383 61.7676C147.004 62.2598 146.814 62.9395 146.814 63.8066ZM156.166 67.1172C155.533 67.1172 154.998 66.9863 154.561 66.7246C154.127 66.459 153.799 66.082 153.576 65.5938C153.357 65.1016 153.248 64.5195 153.248 63.8477C153.248 63.1484 153.375 62.5508 153.629 62.0547C153.883 61.5547 154.24 61.1719 154.701 60.9062C155.162 60.6406 155.703 60.5078 156.324 60.5078C156.629 60.5078 156.912 60.5352 157.174 60.5898C157.436 60.6445 157.672 60.7207 157.883 60.8184L157.725 61.3398C157.506 61.2422 157.273 61.168 157.027 61.1172C156.781 61.0664 156.545 61.041 156.318 61.041C155.795 61.041 155.35 61.1562 154.982 61.3867C154.619 61.6133 154.34 61.9375 154.145 62.3594C153.953 62.7773 153.857 63.2715 153.857 63.8418C153.857 64.377 153.939 64.8516 154.104 65.2656C154.268 65.6758 154.52 66 154.859 66.2383C155.199 66.4727 155.635 66.5898 156.166 66.5898C156.475 66.5898 156.768 66.5586 157.045 66.4961C157.326 66.4336 157.582 66.3535 157.812 66.2559V66.7949C157.605 66.8887 157.365 66.9648 157.092 67.0234C156.822 67.0859 156.514 67.1172 156.166 67.1172ZM161.873 67.1172C161.24 67.1172 160.705 66.9863 160.268 66.7246C159.834 66.459 159.506 66.082 159.283 65.5938C159.064 65.1016 158.955 64.5195 158.955 63.8477C158.955 63.1484 159.082 62.5508 159.336 62.0547C159.59 61.5547 159.947 61.1719 160.408 60.9062C160.869 60.6406 161.41 60.5078 162.031 60.5078C162.336 60.5078 162.619 60.5352 162.881 60.5898C163.143 60.6445 163.379 60.7207 163.59 60.8184L163.432 61.3398C163.213 61.2422 162.98 61.168 162.734 61.1172C162.488 61.0664 162.252 61.041 162.025 61.041C161.502 61.041 161.057 61.1562 160.689 61.3867C160.326 61.6133 160.047 61.9375 159.852 62.3594C159.66 62.7773 159.564 63.2715 159.564 63.8418C159.564 64.377 159.646 64.8516 159.811 65.2656C159.975 65.6758 160.227 66 160.566 66.2383C160.906 66.4727 161.342 66.5898 161.873 66.5898C162.182 66.5898 162.475 66.5586 162.752 66.4961C163.033 66.4336 163.289 66.3535 163.52 66.2559V66.7949C163.312 66.8887 163.072 66.9648 162.799 67.0234C162.529 67.0859 162.221 67.1172 161.873 67.1172ZM165.605 60.6309V65.207C165.605 65.2969 165.604 65.3887 165.6 65.4824C165.6 65.5762 165.598 65.6719 165.594 65.7695C165.594 65.8672 165.592 65.9629 165.588 66.0566C165.584 66.1504 165.578 66.2422 165.57 66.332L169.373 60.6309H170.1V67H169.537V62.3828C169.537 62.2656 169.537 62.1445 169.537 62.0195C169.541 61.8906 169.545 61.7637 169.549 61.6387C169.553 61.5098 169.557 61.3887 169.561 61.2754L165.74 67H165.031V60.6309H165.605ZM172.812 60.6309V65.207C172.812 65.2969 172.811 65.3887 172.807 65.4824C172.807 65.5762 172.805 65.6719 172.801 65.7695C172.801 65.8672 172.799 65.9629 172.795 66.0566C172.791 66.1504 172.785 66.2422 172.777 66.332L176.58 60.6309H177.307V67H176.744V62.3828C176.744 62.2656 176.744 62.1445 176.744 62.0195C176.748 61.8906 176.752 61.7637 176.756 61.6387C176.76 61.5098 176.764 61.3887 176.768 61.2754L172.947 67H172.238V60.6309H172.812Z" fill="white"/>
<path d="M331.871 27.1685C331.871 28.021 331.695 28.7725 331.344 29.4229C330.992 30.0732 330.509 30.605 329.894 31.0181C329.287 31.4312 328.588 31.7124 327.797 31.8618V31.9409C329.309 32.1343 330.465 32.6309 331.265 33.4307C332.064 34.2217 332.464 35.3027 332.464 36.6738C332.464 37.7549 332.209 38.7173 331.7 39.561C331.19 40.4048 330.421 41.0684 329.393 41.5518C328.373 42.0264 327.09 42.2637 325.543 42.2637C324.497 42.2637 323.526 42.167 322.629 41.9736C321.733 41.7803 320.916 41.5122 320.177 41.1694V39.8643C320.907 40.2246 321.746 40.5234 322.695 40.7607C323.653 40.9893 324.607 41.1035 325.556 41.1035C327.419 41.1035 328.804 40.7036 329.709 39.9038C330.614 39.0952 331.067 38.0142 331.067 36.6606C331.067 35.6763 330.825 34.8896 330.342 34.3008C329.858 33.7031 329.177 33.2681 328.298 32.9956C327.428 32.7231 326.404 32.5869 325.227 32.5869H323.117V31.4136H325.24C326.233 31.4136 327.125 31.2598 327.916 30.9521C328.707 30.6357 329.331 30.1699 329.788 29.5547C330.254 28.9307 330.487 28.1572 330.487 27.2344C330.487 26.0391 330.104 25.1382 329.34 24.5317C328.584 23.9253 327.573 23.6221 326.308 23.6221C325.631 23.6221 324.994 23.6924 324.396 23.833C323.807 23.9736 323.236 24.1802 322.682 24.4526C322.137 24.7163 321.592 25.0371 321.047 25.415L320.362 24.4526C321.118 23.8726 321.988 23.3936 322.972 23.0156C323.965 22.6377 325.073 22.4487 326.294 22.4487C328.043 22.4487 329.41 22.8706 330.395 23.7144C331.379 24.5581 331.871 25.7095 331.871 27.1685ZM348.074 30.8862C348.074 32.3364 347.959 33.6592 347.731 34.8545C347.511 36.0498 347.182 37.1133 346.742 38.0449C346.303 38.9678 345.749 39.7456 345.081 40.3784C344.413 41.0112 343.631 41.4902 342.734 41.8154C341.838 42.1406 340.827 42.3032 339.702 42.3032C339.236 42.3032 338.749 42.2725 338.239 42.2109C337.729 42.1582 337.303 42.0835 336.96 41.9868V40.7476C337.294 40.8618 337.703 40.9585 338.186 41.0376C338.678 41.1167 339.179 41.1562 339.689 41.1562C341.192 41.1562 342.458 40.8047 343.486 40.1016C344.514 39.3896 345.301 38.3394 345.846 36.9507C346.391 35.562 346.689 33.8481 346.742 31.8091H346.65C346.404 32.2749 346.043 32.7275 345.569 33.167C345.103 33.6064 344.523 33.9668 343.829 34.248C343.134 34.5205 342.317 34.6567 341.376 34.6567C340.216 34.6567 339.219 34.4238 338.384 33.958C337.549 33.4834 336.907 32.811 336.459 31.9409C336.02 31.062 335.8 30.0205 335.8 28.8164C335.8 27.542 336.037 26.4302 336.512 25.481C336.986 24.5229 337.663 23.7803 338.542 23.2529C339.43 22.7168 340.489 22.4487 341.719 22.4487C342.792 22.4487 343.723 22.6641 344.514 23.0947C345.305 23.5166 345.964 24.1143 346.492 24.8877C347.019 25.6523 347.415 26.5444 347.678 27.564C347.942 28.5835 348.074 29.6909 348.074 30.8862ZM341.719 23.6221C340.278 23.6221 339.153 24.0747 338.344 24.98C337.544 25.8765 337.145 27.1509 337.145 28.8032C337.145 30.2622 337.509 31.418 338.239 32.2705C338.977 33.1143 340.098 33.5361 341.601 33.5361C342.629 33.5361 343.517 33.3296 344.264 32.9165C345.02 32.4946 345.6 31.9761 346.004 31.3608C346.417 30.7456 346.624 30.1392 346.624 29.5415C346.624 28.9966 346.54 28.3857 346.373 27.709C346.215 27.0322 345.947 26.3862 345.569 25.771C345.2 25.147 344.699 24.6328 344.066 24.2285C343.442 23.8242 342.66 23.6221 341.719 23.6221ZM363.499 30.8862C363.499 32.3364 363.384 33.6592 363.156 34.8545C362.936 36.0498 362.606 37.1133 362.167 38.0449C361.728 38.9678 361.174 39.7456 360.506 40.3784C359.838 41.0112 359.056 41.4902 358.159 41.8154C357.263 42.1406 356.252 42.3032 355.127 42.3032C354.661 42.3032 354.173 42.2725 353.664 42.2109C353.154 42.1582 352.728 42.0835 352.385 41.9868V40.7476C352.719 40.8618 353.127 40.9585 353.611 41.0376C354.103 41.1167 354.604 41.1562 355.114 41.1562C356.617 41.1562 357.882 40.8047 358.911 40.1016C359.939 39.3896 360.726 38.3394 361.271 36.9507C361.815 35.562 362.114 33.8481 362.167 31.8091H362.075C361.829 32.2749 361.468 32.7275 360.994 33.167C360.528 33.6064 359.948 33.9668 359.253 34.248C358.559 34.5205 357.742 34.6567 356.801 34.6567C355.641 34.6567 354.644 34.4238 353.809 33.958C352.974 33.4834 352.332 32.811 351.884 31.9409C351.444 31.062 351.225 30.0205 351.225 28.8164C351.225 27.542 351.462 26.4302 351.937 25.481C352.411 24.5229 353.088 23.7803 353.967 23.2529C354.854 22.7168 355.914 22.4487 357.144 22.4487C358.216 22.4487 359.148 22.6641 359.939 23.0947C360.73 23.5166 361.389 24.1143 361.917 24.8877C362.444 25.6523 362.839 26.5444 363.103 27.564C363.367 28.5835 363.499 29.6909 363.499 30.8862ZM357.144 23.6221C355.703 23.6221 354.578 24.0747 353.769 24.98C352.969 25.8765 352.569 27.1509 352.569 28.8032C352.569 30.2622 352.934 31.418 353.664 32.2705C354.402 33.1143 355.522 33.5361 357.025 33.5361C358.054 33.5361 358.941 33.3296 359.688 32.9165C360.444 32.4946 361.024 31.9761 361.429 31.3608C361.842 30.7456 362.048 30.1392 362.048 29.5415C362.048 28.9966 361.965 28.3857 361.798 27.709C361.64 27.0322 361.372 26.3862 360.994 25.771C360.625 25.147 360.124 24.6328 359.491 24.2285C358.867 23.8242 358.084 23.6221 357.144 23.6221ZM369.682 42L377.658 23.9648H366.636V22.7256H379.108V23.7012L371.145 42H369.682ZM394.48 32.3101C394.48 33.9185 394.357 35.3423 394.111 36.5815C393.865 37.8208 393.491 38.8623 392.99 39.7061C392.489 40.5498 391.852 41.187 391.079 41.6177C390.305 42.0483 389.391 42.2637 388.336 42.2637C387 42.2637 385.875 41.8901 384.961 41.1431C384.047 40.396 383.353 39.2842 382.878 37.8076C382.413 36.3311 382.18 34.4985 382.18 32.3101C382.18 30.3589 382.377 28.6406 382.773 27.1553C383.177 25.6699 383.832 24.5098 384.737 23.6748C385.643 22.8398 386.847 22.4224 388.35 22.4224C389.844 22.4224 391.039 22.8311 391.936 23.6484C392.841 24.4658 393.491 25.6172 393.887 27.1025C394.282 28.5791 394.48 30.3149 394.48 32.3101ZM383.524 32.3101C383.524 34.2876 383.696 35.9268 384.039 37.2275C384.381 38.5195 384.909 39.4863 385.621 40.1279C386.333 40.7695 387.238 41.0903 388.336 41.0903C389.47 41.0903 390.389 40.7695 391.092 40.1279C391.795 39.4863 392.309 38.5151 392.634 37.2144C392.968 35.9136 393.135 34.2788 393.135 32.3101C393.135 30.4995 392.99 28.9438 392.7 27.6431C392.419 26.3423 391.931 25.3447 391.237 24.6504C390.542 23.9561 389.58 23.6089 388.35 23.6089C387.146 23.6089 386.192 23.9648 385.489 24.6768C384.786 25.3887 384.28 26.395 383.973 27.6958C383.674 28.9966 383.524 30.5347 383.524 32.3101Z" fill="white"/>
<path d="M302.41 58.8555C301.863 58.8555 301.375 58.9492 300.945 59.1367C300.516 59.3203 300.152 59.582 299.855 59.9219C299.559 60.2617 299.332 60.668 299.176 61.1406C299.02 61.6094 298.941 62.127 298.941 62.6934C298.941 63.4746 299.064 64.1582 299.311 64.7441C299.557 65.3262 299.926 65.7773 300.418 66.0977C300.914 66.418 301.531 66.5781 302.27 66.5781C302.699 66.5781 303.09 66.5469 303.441 66.4844C303.793 66.418 304.119 66.334 304.42 66.2324V66.7598C304.135 66.8652 303.812 66.9512 303.453 67.0176C303.098 67.084 302.684 67.1172 302.211 67.1172C301.355 67.1172 300.637 66.9336 300.055 66.5664C299.477 66.1992 299.041 65.6836 298.748 65.0195C298.455 64.3555 298.309 63.5801 298.309 62.6934C298.309 62.0566 298.4 61.4727 298.584 60.9414C298.768 60.4062 299.035 59.9434 299.387 59.5527C299.742 59.1582 300.174 58.8535 300.682 58.6387C301.189 58.4199 301.768 58.3105 302.416 58.3105C302.826 58.3105 303.217 58.3516 303.588 58.4336C303.963 58.5117 304.314 58.627 304.643 58.7793L304.408 59.3066C304.092 59.1504 303.768 59.0371 303.436 58.9668C303.104 58.8926 302.762 58.8555 302.41 58.8555ZM311.357 63.8066C311.357 64.2988 311.297 64.748 311.176 65.1543C311.055 65.5566 310.875 65.9043 310.637 66.1973C310.398 66.4902 310.102 66.7168 309.746 66.877C309.395 67.0371 308.984 67.1172 308.516 67.1172C308.07 67.1172 307.674 67.0391 307.326 66.8828C306.979 66.7227 306.684 66.4961 306.441 66.2031C306.203 65.9102 306.021 65.5625 305.896 65.1602C305.771 64.7539 305.709 64.3027 305.709 63.8066C305.709 63.123 305.822 62.5352 306.049 62.043C306.279 61.5469 306.607 61.168 307.033 60.9062C307.463 60.6406 307.977 60.5078 308.574 60.5078C309.191 60.5078 309.705 60.6484 310.115 60.9297C310.529 61.207 310.84 61.5938 311.047 62.0898C311.254 62.5859 311.357 63.1582 311.357 63.8066ZM306.318 63.8066C306.318 64.3652 306.398 64.8535 306.559 65.2715C306.719 65.6895 306.961 66.0156 307.285 66.25C307.613 66.4844 308.027 66.6016 308.527 66.6016C309.039 66.6016 309.459 66.4844 309.787 66.25C310.115 66.0156 310.357 65.6875 310.514 65.2656C310.67 64.8438 310.748 64.3574 310.748 63.8066C310.748 63.2715 310.674 62.7949 310.525 62.377C310.377 61.959 310.143 61.6309 309.822 61.3926C309.502 61.1504 309.084 61.0293 308.568 61.0293C307.83 61.0293 307.27 61.2754 306.887 61.7676C306.508 62.2598 306.318 62.9395 306.318 63.8066ZM317.176 61.1523H315.02V67H314.439V61.1523H312.295V60.6309H317.176V61.1523ZM321.295 60.5078C322.115 60.5078 322.75 60.7832 323.199 61.334C323.652 61.8848 323.879 62.6973 323.879 63.7715C323.879 64.4902 323.771 65.0996 323.557 65.5996C323.342 66.0957 323.035 66.4727 322.637 66.7305C322.242 66.9883 321.768 67.1172 321.213 67.1172C320.83 67.1172 320.496 67.0605 320.211 66.9473C319.93 66.8301 319.695 66.6738 319.508 66.4785C319.32 66.2793 319.176 66.0605 319.074 65.8223H319.033C319.045 66.0449 319.055 66.2773 319.062 66.5195C319.07 66.7617 319.074 66.9902 319.074 67.2051V69.8184H318.477V60.6309H318.969L319.039 61.9023H319.074C319.18 61.6602 319.328 61.4316 319.52 61.2168C319.711 61.002 319.953 60.8301 320.246 60.7012C320.539 60.5723 320.889 60.5078 321.295 60.5078ZM321.219 61.0293C320.738 61.0293 320.338 61.1348 320.018 61.3457C319.701 61.5527 319.465 61.8574 319.309 62.2598C319.156 62.6582 319.078 63.1465 319.074 63.7246V63.8242C319.074 64.4453 319.15 64.9629 319.303 65.377C319.459 65.7871 319.691 66.0938 320 66.2969C320.312 66.5 320.699 66.6016 321.16 66.6016C321.613 66.6016 321.996 66.4902 322.309 66.2676C322.621 66.0449 322.859 65.7227 323.023 65.3008C323.188 64.8789 323.27 64.3672 323.27 63.7656C323.27 62.8711 323.098 62.1914 322.754 61.7266C322.414 61.2617 321.902 61.0293 321.219 61.0293ZM324.57 60.6309H325.197L326.744 64.6738C326.838 64.9121 326.92 65.1328 326.99 65.3359C327.064 65.5352 327.129 65.7188 327.184 65.8867C327.238 66.0508 327.283 66.2012 327.318 66.3379H327.354C327.412 66.1582 327.49 65.9277 327.588 65.6465C327.686 65.3613 327.797 65.0449 327.922 64.6973L329.451 60.6309H330.084L327.178 68.1953C327.037 68.5625 326.883 68.873 326.715 69.127C326.547 69.3848 326.35 69.5781 326.123 69.707C325.896 69.8398 325.623 69.9062 325.303 69.9062C325.158 69.9062 325.027 69.8945 324.91 69.8711C324.793 69.8516 324.68 69.8242 324.57 69.7891V69.2793C324.672 69.3105 324.775 69.3359 324.881 69.3555C324.99 69.3789 325.109 69.3906 325.238 69.3906C325.461 69.3906 325.652 69.3438 325.812 69.25C325.977 69.1602 326.123 69.0195 326.252 68.8281C326.381 68.6367 326.502 68.3926 326.615 68.0957L327.049 66.9648L324.57 60.6309ZM335.486 60.6309V66.4785H336.342V69.1562H335.762V67H330.887V69.1562H330.312V66.4785H330.74C331.1 65.9824 331.4 65.4297 331.643 64.8203C331.885 64.2109 332.068 63.5547 332.193 62.8516C332.322 62.1445 332.391 61.4043 332.398 60.6309H335.486ZM334.906 61.1289H332.938C332.906 61.8281 332.828 62.498 332.703 63.1387C332.578 63.7754 332.406 64.375 332.188 64.9375C331.969 65.4961 331.703 66.0098 331.391 66.4785H334.906V61.1289ZM338.281 60.6309V63.4199H342.295V60.6309H342.887V67H342.295V63.9414H338.281V67H337.684V60.6309H338.281ZM345.594 60.6309V65.207C345.594 65.2969 345.592 65.3887 345.588 65.4824C345.588 65.5762 345.586 65.6719 345.582 65.7695C345.582 65.8672 345.58 65.9629 345.576 66.0566C345.572 66.1504 345.566 66.2422 345.559 66.332L349.361 60.6309H350.088V67H349.525V62.3828C349.525 62.2656 349.525 62.1445 349.525 62.0195C349.529 61.8906 349.533 61.7637 349.537 61.6387C349.541 61.5098 349.545 61.3887 349.549 61.2754L345.729 67H345.02V60.6309H345.594ZM355.695 60.6309H356.381L353.498 63.7246L356.557 67H355.824L352.824 63.7715V67H352.227V60.6309H352.824V63.7246L355.695 60.6309ZM363.014 63.8066C363.014 64.2988 362.953 64.748 362.832 65.1543C362.711 65.5566 362.531 65.9043 362.293 66.1973C362.055 66.4902 361.758 66.7168 361.402 66.877C361.051 67.0371 360.641 67.1172 360.172 67.1172C359.727 67.1172 359.33 67.0391 358.982 66.8828C358.635 66.7227 358.34 66.4961 358.098 66.2031C357.859 65.9102 357.678 65.5625 357.553 65.1602C357.428 64.7539 357.365 64.3027 357.365 63.8066C357.365 63.123 357.479 62.5352 357.705 62.043C357.936 61.5469 358.264 61.168 358.689 60.9062C359.119 60.6406 359.633 60.5078 360.23 60.5078C360.848 60.5078 361.361 60.6484 361.771 60.9297C362.186 61.207 362.496 61.5938 362.703 62.0898C362.91 62.5859 363.014 63.1582 363.014 63.8066ZM357.975 63.8066C357.975 64.3652 358.055 64.8535 358.215 65.2715C358.375 65.6895 358.617 66.0156 358.941 66.25C359.27 66.4844 359.684 66.6016 360.184 66.6016C360.695 66.6016 361.115 66.4844 361.443 66.25C361.771 66.0156 362.014 65.6875 362.17 65.2656C362.326 64.8438 362.404 64.3574 362.404 63.8066C362.404 63.2715 362.33 62.7949 362.182 62.377C362.033 61.959 361.799 61.6309 361.479 61.3926C361.158 61.1504 360.74 61.0293 360.225 61.0293C359.486 61.0293 358.926 61.2754 358.543 61.7676C358.164 62.2598 357.975 62.9395 357.975 63.8066ZM369.547 62.1836C369.547 62.5859 369.441 62.9023 369.23 63.1328C369.023 63.3633 368.748 63.5195 368.404 63.6016V63.6367C368.822 63.6992 369.158 63.8574 369.412 64.1113C369.67 64.3613 369.799 64.7207 369.799 65.1895C369.799 65.5605 369.717 65.8809 369.553 66.1504C369.389 66.4199 369.137 66.6289 368.797 66.7773C368.461 66.9258 368.029 67 367.502 67H364.777V60.6309H367.432C367.9 60.6309 368.291 60.6914 368.604 60.8125C368.916 60.9297 369.15 61.1035 369.307 61.334C369.467 61.5605 369.547 61.8438 369.547 62.1836ZM369.184 65.1895C369.184 64.7324 369.029 64.4043 368.721 64.2051C368.412 64.0059 367.959 63.9062 367.361 63.9062H365.375V66.4961H367.396C367.994 66.4961 368.441 66.3906 368.738 66.1797C369.035 65.9648 369.184 65.6348 369.184 65.1895ZM368.943 62.2305C368.943 61.8945 368.824 61.6309 368.586 61.4395C368.348 61.2441 367.943 61.1465 367.373 61.1465H365.375V63.3848H367.314C367.877 63.3848 368.289 63.2891 368.551 63.0977C368.812 62.9023 368.943 62.6133 368.943 62.2305ZM379.461 62.1836C379.461 62.5859 379.355 62.9023 379.145 63.1328C378.938 63.3633 378.662 63.5195 378.318 63.6016V63.6367C378.736 63.6992 379.072 63.8574 379.326 64.1113C379.584 64.3613 379.713 64.7207 379.713 65.1895C379.713 65.5605 379.631 65.8809 379.467 66.1504C379.303 66.4199 379.051 66.6289 378.711 66.7773C378.375 66.9258 377.943 67 377.416 67H374.691V60.6309H377.346C377.814 60.6309 378.205 60.6914 378.518 60.8125C378.83 60.9297 379.064 61.1035 379.221 61.334C379.381 61.5605 379.461 61.8438 379.461 62.1836ZM379.098 65.1895C379.098 64.7324 378.943 64.4043 378.635 64.2051C378.326 64.0059 377.873 63.9062 377.275 63.9062H375.289V66.4961H377.311C377.908 66.4961 378.355 66.3906 378.652 66.1797C378.949 65.9648 379.098 65.6348 379.098 65.1895ZM378.857 62.2305C378.857 61.8945 378.738 61.6309 378.5 61.4395C378.262 61.2441 377.857 61.1465 377.287 61.1465H375.289V63.3848H377.229C377.791 63.3848 378.203 63.2891 378.465 63.0977C378.727 62.9023 378.857 62.6133 378.857 62.2305ZM392.697 60.6309V67H384.594V60.6309H385.186V66.4785H388.35V60.6309H388.941V66.4785H392.105V60.6309H392.697ZM398.879 61.1523H396.723V67H396.143V61.1523H393.998V60.6309H398.879V61.1523ZM402.4 60.5195C403.1 60.5195 403.623 60.6953 403.971 61.0469C404.318 61.3984 404.492 61.959 404.492 62.7285V67H404.035L403.93 65.8867H403.895C403.758 66.125 403.592 66.3379 403.396 66.5254C403.201 66.709 402.961 66.8535 402.676 66.959C402.395 67.0645 402.051 67.1172 401.645 67.1172C401.234 67.1172 400.883 67.0488 400.59 66.9121C400.301 66.7754 400.076 66.5762 399.916 66.3145C399.76 66.0527 399.682 65.7344 399.682 65.3594C399.682 64.7266 399.943 64.2461 400.467 63.918C400.99 63.5859 401.742 63.3984 402.723 63.3555L403.906 63.2969V62.834C403.906 62.1816 403.777 61.7168 403.52 61.4395C403.262 61.1621 402.881 61.0234 402.377 61.0234C402.049 61.0234 401.732 61.0664 401.428 61.1523C401.127 61.2344 400.82 61.3535 400.508 61.5098L400.32 61.0176C400.625 60.873 400.951 60.7539 401.299 60.6602C401.65 60.5664 402.018 60.5195 402.4 60.5195ZM403.9 63.7598L402.787 63.8066C401.979 63.8457 401.363 63.9902 400.941 64.2402C400.52 64.4902 400.309 64.8652 400.309 65.3652C400.309 65.7676 400.434 66.0762 400.684 66.291C400.938 66.5059 401.289 66.6133 401.738 66.6133C402.438 66.6133 402.971 66.4141 403.338 66.0156C403.709 65.6172 403.896 65.0742 403.9 64.3867V63.7598ZM410.598 61.1523H408.441V67H407.861V61.1523H405.717V60.6309H410.598V61.1523ZM414.307 60.5078C414.85 60.5078 415.301 60.6348 415.66 60.8887C416.023 61.1426 416.293 61.4902 416.469 61.9316C416.648 62.373 416.738 62.8789 416.738 63.4492V63.877H412.139C412.139 64.752 412.34 65.4238 412.742 65.8926C413.148 66.3613 413.729 66.5957 414.482 66.5957C414.877 66.5957 415.219 66.5645 415.508 66.502C415.801 66.4355 416.125 66.3242 416.48 66.168V66.7129C416.168 66.8535 415.855 66.9551 415.543 67.0176C415.23 67.084 414.871 67.1172 414.465 67.1172C413.82 67.1172 413.279 66.9844 412.842 66.7188C412.408 66.4492 412.08 66.0703 411.857 65.582C411.639 65.0938 411.529 64.5234 411.529 63.8711C411.529 63.2344 411.635 62.6621 411.846 62.1543C412.061 61.6465 412.373 61.2461 412.783 60.9531C413.197 60.6562 413.705 60.5078 414.307 60.5078ZM414.301 61.0176C413.691 61.0176 413.197 61.2207 412.818 61.627C412.443 62.0293 412.223 62.6113 412.156 63.373H416.123C416.123 62.9082 416.057 62.498 415.924 62.1426C415.791 61.7871 415.59 61.5117 415.32 61.3164C415.055 61.1172 414.715 61.0176 414.301 61.0176Z" fill="white"/>
<path d="M558.344 58.4336V58.9844H554.254V67H553.65V58.4336H558.344ZM564.807 63.8066C564.807 64.2988 564.746 64.748 564.625 65.1543C564.504 65.5566 564.324 65.9043 564.086 66.1973C563.848 66.4902 563.551 66.7168 563.195 66.877C562.844 67.0371 562.434 67.1172 561.965 67.1172C561.52 67.1172 561.123 67.0391 560.775 66.8828C560.428 66.7227 560.133 66.4961 559.891 66.2031C559.652 65.9102 559.471 65.5625 559.346 65.1602C559.221 64.7539 559.158 64.3027 559.158 63.8066C559.158 63.123 559.271 62.5352 559.498 62.043C559.729 61.5469 560.057 61.168 560.482 60.9062C560.912 60.6406 561.426 60.5078 562.023 60.5078C562.641 60.5078 563.154 60.6484 563.564 60.9297C563.979 61.207 564.289 61.5938 564.496 62.0898C564.703 62.5859 564.807 63.1582 564.807 63.8066ZM559.768 63.8066C559.768 64.3652 559.848 64.8535 560.008 65.2715C560.168 65.6895 560.41 66.0156 560.734 66.25C561.062 66.4844 561.477 66.6016 561.977 66.6016C562.488 66.6016 562.908 66.4844 563.236 66.25C563.564 66.0156 563.807 65.6875 563.963 65.2656C564.119 64.8438 564.197 64.3574 564.197 63.8066C564.197 63.2715 564.123 62.7949 563.975 62.377C563.826 61.959 563.592 61.6309 563.271 61.3926C562.951 61.1504 562.533 61.0293 562.018 61.0293C561.279 61.0293 560.719 61.2754 560.336 61.7676C559.957 62.2598 559.768 62.9395 559.768 63.8066ZM569.389 60.5078C570.209 60.5078 570.844 60.7832 571.293 61.334C571.746 61.8848 571.973 62.6973 571.973 63.7715C571.973 64.4902 571.865 65.0996 571.65 65.5996C571.436 66.0957 571.129 66.4727 570.73 66.7305C570.336 66.9883 569.861 67.1172 569.307 67.1172C568.924 67.1172 568.59 67.0605 568.305 66.9473C568.023 66.8301 567.789 66.6738 567.602 66.4785C567.414 66.2793 567.27 66.0605 567.168 65.8223H567.127C567.139 66.0449 567.148 66.2773 567.156 66.5195C567.164 66.7617 567.168 66.9902 567.168 67.2051V69.8184H566.57V60.6309H567.062L567.133 61.9023H567.168C567.273 61.6602 567.422 61.4316 567.613 61.2168C567.805 61.002 568.047 60.8301 568.34 60.7012C568.633 60.5723 568.982 60.5078 569.389 60.5078ZM569.312 61.0293C568.832 61.0293 568.432 61.1348 568.111 61.3457C567.795 61.5527 567.559 61.8574 567.402 62.2598C567.25 62.6582 567.172 63.1465 567.168 63.7246V63.8242C567.168 64.4453 567.244 64.9629 567.396 65.377C567.553 65.7871 567.785 66.0938 568.094 66.2969C568.406 66.5 568.793 66.6016 569.254 66.6016C569.707 66.6016 570.09 66.4902 570.402 66.2676C570.715 66.0449 570.953 65.7227 571.117 65.3008C571.281 64.8789 571.363 64.3672 571.363 63.7656C571.363 62.8711 571.191 62.1914 570.848 61.7266C570.508 61.2617 569.996 61.0293 569.312 61.0293ZM578.998 63.8066C578.998 64.2988 578.938 64.748 578.816 65.1543C578.695 65.5566 578.516 65.9043 578.277 66.1973C578.039 66.4902 577.742 66.7168 577.387 66.877C577.035 67.0371 576.625 67.1172 576.156 67.1172C575.711 67.1172 575.314 67.0391 574.967 66.8828C574.619 66.7227 574.324 66.4961 574.082 66.2031C573.844 65.9102 573.662 65.5625 573.537 65.1602C573.412 64.7539 573.35 64.3027 573.35 63.8066C573.35 63.123 573.463 62.5352 573.689 62.043C573.92 61.5469 574.248 61.168 574.674 60.9062C575.104 60.6406 575.617 60.5078 576.215 60.5078C576.832 60.5078 577.346 60.6484 577.756 60.9297C578.17 61.207 578.48 61.5938 578.688 62.0898C578.895 62.5859 578.998 63.1582 578.998 63.8066ZM573.959 63.8066C573.959 64.3652 574.039 64.8535 574.199 65.2715C574.359 65.6895 574.602 66.0156 574.926 66.25C575.254 66.4844 575.668 66.6016 576.168 66.6016C576.68 66.6016 577.1 66.4844 577.428 66.25C577.756 66.0156 577.998 65.6875 578.154 65.2656C578.311 64.8438 578.389 64.3574 578.389 63.8066C578.389 63.2715 578.314 62.7949 578.166 62.377C578.018 61.959 577.783 61.6309 577.463 61.3926C577.143 61.1504 576.725 61.0293 576.209 61.0293C575.471 61.0293 574.91 61.2754 574.527 61.7676C574.148 62.2598 573.959 62.9395 573.959 63.8066ZM585.115 60.6309V66.4785H585.971V69.1562H585.391V67H580.516V69.1562H579.941V66.4785H580.369C580.729 65.9824 581.029 65.4297 581.271 64.8203C581.514 64.2109 581.697 63.5547 581.822 62.8516C581.951 62.1445 582.02 61.4043 582.027 60.6309H585.115ZM584.535 61.1289H582.566C582.535 61.8281 582.457 62.498 582.332 63.1387C582.207 63.7754 582.035 64.375 581.816 64.9375C581.598 65.4961 581.332 66.0098 581.02 66.4785H584.535V61.1289ZM592.592 63.8066C592.592 64.2988 592.531 64.748 592.41 65.1543C592.289 65.5566 592.109 65.9043 591.871 66.1973C591.633 66.4902 591.336 66.7168 590.98 66.877C590.629 67.0371 590.219 67.1172 589.75 67.1172C589.305 67.1172 588.908 67.0391 588.561 66.8828C588.213 66.7227 587.918 66.4961 587.676 66.2031C587.438 65.9102 587.256 65.5625 587.131 65.1602C587.006 64.7539 586.943 64.3027 586.943 63.8066C586.943 63.123 587.057 62.5352 587.283 62.043C587.514 61.5469 587.842 61.168 588.268 60.9062C588.697 60.6406 589.211 60.5078 589.809 60.5078C590.426 60.5078 590.939 60.6484 591.35 60.9297C591.764 61.207 592.074 61.5938 592.281 62.0898C592.488 62.5859 592.592 63.1582 592.592 63.8066ZM587.553 63.8066C587.553 64.3652 587.633 64.8535 587.793 65.2715C587.953 65.6895 588.195 66.0156 588.52 66.25C588.848 66.4844 589.262 66.6016 589.762 66.6016C590.273 66.6016 590.693 66.4844 591.021 66.25C591.35 66.0156 591.592 65.6875 591.748 65.2656C591.904 64.8438 591.982 64.3574 591.982 63.8066C591.982 63.2715 591.908 62.7949 591.76 62.377C591.611 61.959 591.377 61.6309 591.057 61.3926C590.736 61.1504 590.318 61.0293 589.803 61.0293C589.064 61.0293 588.504 61.2754 588.121 61.7676C587.742 62.2598 587.553 62.9395 587.553 63.8066ZM599.125 62.1836C599.125 62.5859 599.02 62.9023 598.809 63.1328C598.602 63.3633 598.326 63.5195 597.982 63.6016V63.6367C598.4 63.6992 598.736 63.8574 598.99 64.1113C599.248 64.3613 599.377 64.7207 599.377 65.1895C599.377 65.5605 599.295 65.8809 599.131 66.1504C598.967 66.4199 598.715 66.6289 598.375 66.7773C598.039 66.9258 597.607 67 597.08 67H594.355V60.6309H597.01C597.479 60.6309 597.869 60.6914 598.182 60.8125C598.494 60.9297 598.729 61.1035 598.885 61.334C599.045 61.5605 599.125 61.8438 599.125 62.1836ZM598.762 65.1895C598.762 64.7324 598.607 64.4043 598.299 64.2051C597.99 64.0059 597.537 63.9062 596.939 63.9062H594.953V66.4961H596.975C597.572 66.4961 598.02 66.3906 598.316 66.1797C598.613 65.9648 598.762 65.6348 598.762 65.1895ZM598.521 62.2305C598.521 61.8945 598.402 61.6309 598.164 61.4395C597.926 61.2441 597.521 61.1465 596.951 61.1465H594.953V63.3848H596.893C597.455 63.3848 597.867 63.2891 598.129 63.0977C598.391 62.9023 598.521 62.6133 598.521 62.2305ZM606.818 67.1172C606.186 67.1172 605.65 66.9863 605.213 66.7246C604.779 66.459 604.451 66.082 604.229 65.5938C604.01 65.1016 603.9 64.5195 603.9 63.8477C603.9 63.1484 604.027 62.5508 604.281 62.0547C604.535 61.5547 604.893 61.1719 605.354 60.9062C605.814 60.6406 606.355 60.5078 606.977 60.5078C607.281 60.5078 607.564 60.5352 607.826 60.5898C608.088 60.6445 608.324 60.7207 608.535 60.8184L608.377 61.3398C608.158 61.2422 607.926 61.168 607.68 61.1172C607.434 61.0664 607.197 61.041 606.971 61.041C606.447 61.041 606.002 61.1562 605.635 61.3867C605.271 61.6133 604.992 61.9375 604.797 62.3594C604.605 62.7773 604.51 63.2715 604.51 63.8418C604.51 64.377 604.592 64.8516 604.756 65.2656C604.92 65.6758 605.172 66 605.512 66.2383C605.852 66.4727 606.287 66.5898 606.818 66.5898C607.127 66.5898 607.42 66.5586 607.697 66.4961C607.979 66.4336 608.234 66.3535 608.465 66.2559V66.7949C608.258 66.8887 608.018 66.9648 607.744 67.0234C607.475 67.0859 607.166 67.1172 606.818 67.1172ZM619.293 60.6309V67H618.742V62.418C618.742 62.2461 618.744 62.082 618.748 61.9258C618.756 61.7695 618.764 61.6016 618.771 61.4219H618.742L616.434 67H615.918L613.627 61.416H613.598C613.605 61.5957 613.611 61.7656 613.615 61.9258C613.619 62.082 613.621 62.2578 613.621 62.4531V67H613.064V60.6309H613.879L616.182 66.2559L618.496 60.6309H619.293ZM623.412 60.5195C624.111 60.5195 624.635 60.6953 624.982 61.0469C625.33 61.3984 625.504 61.959 625.504 62.7285V67H625.047L624.941 65.8867H624.906C624.77 66.125 624.604 66.3379 624.408 66.5254C624.213 66.709 623.973 66.8535 623.688 66.959C623.406 67.0645 623.062 67.1172 622.656 67.1172C622.246 67.1172 621.895 67.0488 621.602 66.9121C621.312 66.7754 621.088 66.5762 620.928 66.3145C620.771 66.0527 620.693 65.7344 620.693 65.3594C620.693 64.7266 620.955 64.2461 621.479 63.918C622.002 63.5859 622.754 63.3984 623.734 63.3555L624.918 63.2969V62.834C624.918 62.1816 624.789 61.7168 624.531 61.4395C624.273 61.1621 623.893 61.0234 623.389 61.0234C623.061 61.0234 622.744 61.0664 622.439 61.1523C622.139 61.2344 621.832 61.3535 621.52 61.5098L621.332 61.0176C621.637 60.873 621.963 60.7539 622.311 60.6602C622.662 60.5664 623.029 60.5195 623.412 60.5195ZM624.912 63.7598L623.799 63.8066C622.99 63.8457 622.375 63.9902 621.953 64.2402C621.531 64.4902 621.32 64.8652 621.32 65.3652C621.32 65.7676 621.445 66.0762 621.695 66.291C621.949 66.5059 622.301 66.6133 622.75 66.6133C623.449 66.6133 623.982 66.4141 624.35 66.0156C624.721 65.6172 624.908 65.0742 624.912 64.3867V63.7598ZM631.305 60.6309V61.1523H628.152V67H627.555V60.6309H631.305ZM634.838 60.5195C635.537 60.5195 636.061 60.6953 636.408 61.0469C636.756 61.3984 636.93 61.959 636.93 62.7285V67H636.473L636.367 65.8867H636.332C636.195 66.125 636.029 66.3379 635.834 66.5254C635.639 66.709 635.398 66.8535 635.113 66.959C634.832 67.0645 634.488 67.1172 634.082 67.1172C633.672 67.1172 633.32 67.0488 633.027 66.9121C632.738 66.7754 632.514 66.5762 632.354 66.3145C632.197 66.0527 632.119 65.7344 632.119 65.3594C632.119 64.7266 632.381 64.2461 632.904 63.918C633.428 63.5859 634.18 63.3984 635.16 63.3555L636.344 63.2969V62.834C636.344 62.1816 636.215 61.7168 635.957 61.4395C635.699 61.1621 635.318 61.0234 634.814 61.0234C634.486 61.0234 634.17 61.0664 633.865 61.1523C633.564 61.2344 633.258 61.3535 632.945 61.5098L632.758 61.0176C633.062 60.873 633.389 60.7539 633.736 60.6602C634.088 60.5664 634.455 60.5195 634.838 60.5195ZM636.338 63.7598L635.225 63.8066C634.416 63.8457 633.801 63.9902 633.379 64.2402C632.957 64.4902 632.746 64.8652 632.746 65.3652C632.746 65.7676 632.871 66.0762 633.121 66.291C633.375 66.5059 633.727 66.6133 634.176 66.6133C634.875 66.6133 635.408 66.4141 635.775 66.0156C636.146 65.6172 636.334 65.0742 636.338 64.3867V63.7598ZM640.439 60.5078C640.877 60.5078 641.25 60.5723 641.559 60.7012C641.867 60.8301 642.102 61.0176 642.262 61.2637C642.426 61.5059 642.508 61.8008 642.508 62.1484C642.508 62.5156 642.41 62.8203 642.215 63.0625C642.02 63.3008 641.744 63.4707 641.389 63.5723V63.6074C641.686 63.6738 641.934 63.7793 642.133 63.9238C642.336 64.0684 642.488 64.25 642.59 64.4688C642.691 64.6836 642.742 64.9316 642.742 65.2129C642.742 65.6035 642.643 65.9414 642.443 66.2266C642.248 66.5117 641.969 66.7324 641.605 66.8887C641.242 67.041 640.807 67.1172 640.299 67.1172C640.018 67.1172 639.752 67.0996 639.502 67.0645C639.252 67.0293 639.025 66.9805 638.822 66.918C638.623 66.8516 638.449 66.7793 638.301 66.7012V66.1211C638.586 66.2734 638.895 66.3926 639.227 66.4785C639.562 66.5645 639.92 66.6074 640.299 66.6074C640.658 66.6074 640.977 66.5547 641.254 66.4492C641.531 66.3438 641.75 66.1855 641.91 65.9746C642.07 65.7637 642.15 65.498 642.15 65.1777C642.15 64.873 642.078 64.627 641.934 64.4395C641.789 64.248 641.576 64.1094 641.295 64.0234C641.014 63.9336 640.666 63.8887 640.252 63.8887H639.396V63.3789H640.188C640.719 63.3789 641.143 63.2832 641.459 63.0918C641.775 62.8965 641.934 62.5938 641.934 62.1836C641.934 61.8047 641.803 61.5176 641.541 61.3223C641.283 61.123 640.908 61.0234 640.416 61.0234C640.068 61.0234 639.758 61.0645 639.484 61.1465C639.211 61.2246 638.93 61.3301 638.641 61.4629L638.424 60.9648C638.721 60.8281 639.031 60.7188 639.355 60.6367C639.684 60.5508 640.045 60.5078 640.439 60.5078ZM644.98 60.6309V65.207C644.98 65.2969 644.979 65.3887 644.975 65.4824C644.975 65.5762 644.973 65.6719 644.969 65.7695C644.969 65.8672 644.967 65.9629 644.963 66.0566C644.959 66.1504 644.953 66.2422 644.945 66.332L648.748 60.6309H649.475V67H648.912V62.3828C648.912 62.2656 648.912 62.1445 648.912 62.0195C648.916 61.8906 648.92 61.7637 648.924 61.6387C648.928 61.5098 648.932 61.3887 648.936 61.2754L645.115 67H644.406V60.6309H644.98ZM652.211 60.6309V63.4199H656.225V60.6309H656.816V67H656.225V63.9414H652.211V67H651.613V60.6309H652.211ZM661.17 60.5195C661.869 60.5195 662.393 60.6953 662.74 61.0469C663.088 61.3984 663.262 61.959 663.262 62.7285V67H662.805L662.699 65.8867H662.664C662.527 66.125 662.361 66.3379 662.166 66.5254C661.971 66.709 661.73 66.8535 661.445 66.959C661.164 67.0645 660.82 67.1172 660.414 67.1172C660.004 67.1172 659.652 67.0488 659.359 66.9121C659.07 66.7754 658.846 66.5762 658.686 66.3145C658.529 66.0527 658.451 65.7344 658.451 65.3594C658.451 64.7266 658.713 64.2461 659.236 63.918C659.76 63.5859 660.512 63.3984 661.492 63.3555L662.676 63.2969V62.834C662.676 62.1816 662.547 61.7168 662.289 61.4395C662.031 61.1621 661.65 61.0234 661.146 61.0234C660.818 61.0234 660.502 61.0664 660.197 61.1523C659.896 61.2344 659.59 61.3535 659.277 61.5098L659.09 61.0176C659.395 60.873 659.721 60.7539 660.068 60.6602C660.42 60.5664 660.787 60.5195 661.17 60.5195ZM662.67 63.7598L661.557 63.8066C660.748 63.8457 660.133 63.9902 659.711 64.2402C659.289 64.4902 659.078 64.8652 659.078 65.3652C659.078 65.7676 659.203 66.0762 659.453 66.291C659.707 66.5059 660.059 66.6133 660.508 66.6133C661.207 66.6133 661.74 66.4141 662.107 66.0156C662.479 65.6172 662.666 65.0742 662.67 64.3867V63.7598ZM671.512 60.6309V67H670.961V62.418C670.961 62.2461 670.963 62.082 670.967 61.9258C670.975 61.7695 670.982 61.6016 670.99 61.4219H670.961L668.652 67H668.137L665.846 61.416H665.816C665.824 61.5957 665.83 61.7656 665.834 61.9258C665.838 62.082 665.84 62.2578 665.84 62.4531V67H665.283V60.6309H666.098L668.4 66.2559L670.715 60.6309H671.512ZM673.984 60.6309V65.207C673.984 65.2969 673.982 65.3887 673.979 65.4824C673.979 65.5762 673.977 65.6719 673.973 65.7695C673.973 65.8672 673.971 65.9629 673.967 66.0566C673.963 66.1504 673.957 66.2422 673.949 66.332L677.752 60.6309H678.479V67H677.916V62.3828C677.916 62.2656 677.916 62.1445 677.916 62.0195C677.92 61.8906 677.924 61.7637 677.928 61.6387C677.932 61.5098 677.936 61.3887 677.939 61.2754L674.119 67H673.41V60.6309H673.984ZM577.387 83V74.4336H577.99V83H577.387ZM583.064 76.5078C583.779 76.5078 584.328 76.6953 584.711 77.0703C585.094 77.4453 585.285 78.0332 585.285 78.834V83H584.699V78.8691C584.699 78.2363 584.555 77.7715 584.266 77.4746C583.977 77.1777 583.557 77.0293 583.006 77.0293C582.307 77.0293 581.771 77.2344 581.4 77.6445C581.033 78.0508 580.85 78.666 580.85 79.4902V83H580.258V76.6309H580.738L580.826 77.791H580.861C580.975 77.5527 581.129 77.3379 581.324 77.1465C581.523 76.9512 581.768 76.7969 582.057 76.6836C582.346 76.5664 582.682 76.5078 583.064 76.5078ZM589.07 82.6074C589.254 82.6074 589.424 82.5938 589.58 82.5664C589.74 82.5391 589.881 82.5039 590.002 82.4609V82.9531C589.877 82.9961 589.73 83.0332 589.562 83.0645C589.395 83.0996 589.209 83.1172 589.006 83.1172C588.646 83.1172 588.348 83.0508 588.109 82.918C587.871 82.7812 587.691 82.5762 587.57 82.3027C587.449 82.0254 587.389 81.6738 587.389 81.248V77.123H586.439V76.7715L587.383 76.5898L587.588 75.0898H587.98V76.6309H589.967V77.123H587.98V81.2129C587.98 81.6699 588.064 82.0176 588.232 82.2559C588.404 82.4902 588.684 82.6074 589.07 82.6074ZM593.781 76.5078C594.324 76.5078 594.775 76.6348 595.135 76.8887C595.498 77.1426 595.768 77.4902 595.943 77.9316C596.123 78.373 596.213 78.8789 596.213 79.4492V79.877H591.613C591.613 80.752 591.814 81.4238 592.217 81.8926C592.623 82.3613 593.203 82.5957 593.957 82.5957C594.352 82.5957 594.693 82.5645 594.982 82.502C595.275 82.4355 595.6 82.3242 595.955 82.168V82.7129C595.643 82.8535 595.33 82.9551 595.018 83.0176C594.705 83.084 594.346 83.1172 593.939 83.1172C593.295 83.1172 592.754 82.9844 592.316 82.7188C591.883 82.4492 591.555 82.0703 591.332 81.582C591.113 81.0938 591.004 80.5234 591.004 79.8711C591.004 79.2344 591.109 78.6621 591.32 78.1543C591.535 77.6465 591.848 77.2461 592.258 76.9531C592.672 76.6562 593.18 76.5078 593.781 76.5078ZM593.775 77.0176C593.166 77.0176 592.672 77.2207 592.293 77.627C591.918 78.0293 591.697 78.6113 591.631 79.373H595.598C595.598 78.9082 595.531 78.498 595.398 78.1426C595.266 77.7871 595.064 77.5117 594.795 77.3164C594.529 77.1172 594.189 77.0176 593.775 77.0176ZM600.502 76.5195C600.67 76.5195 600.828 76.5293 600.977 76.5488C601.125 76.5684 601.264 76.5957 601.393 76.6309L601.299 77.1758C601.17 77.1406 601.039 77.1152 600.906 77.0996C600.773 77.0801 600.631 77.0703 600.479 77.0703C600.178 77.0703 599.908 77.127 599.67 77.2402C599.436 77.3535 599.236 77.5156 599.072 77.7266C598.908 77.9375 598.783 78.1914 598.697 78.4883C598.611 78.7852 598.568 79.1172 598.568 79.4844V83H597.971V76.6309H598.48L598.539 77.832H598.574C598.672 77.5859 598.809 77.3652 598.984 77.1699C599.164 76.9707 599.381 76.8125 599.635 76.6953C599.889 76.5781 600.178 76.5195 600.502 76.5195ZM605.447 76.5078C606.162 76.5078 606.711 76.6953 607.094 77.0703C607.477 77.4453 607.668 78.0332 607.668 78.834V83H607.082V78.8691C607.082 78.2363 606.938 77.7715 606.648 77.4746C606.359 77.1777 605.939 77.0293 605.389 77.0293C604.689 77.0293 604.154 77.2344 603.783 77.6445C603.416 78.0508 603.232 78.666 603.232 79.4902V83H602.641V76.6309H603.121L603.209 77.791H603.244C603.357 77.5527 603.512 77.3379 603.707 77.1465C603.906 76.9512 604.15 76.7969 604.439 76.6836C604.729 76.5664 605.064 76.5078 605.447 76.5078ZM612.145 76.5078C612.688 76.5078 613.139 76.6348 613.498 76.8887C613.861 77.1426 614.131 77.4902 614.307 77.9316C614.486 78.373 614.576 78.8789 614.576 79.4492V79.877H609.977C609.977 80.752 610.178 81.4238 610.58 81.8926C610.986 82.3613 611.566 82.5957 612.32 82.5957C612.715 82.5957 613.057 82.5645 613.346 82.502C613.639 82.4355 613.963 82.3242 614.318 82.168V82.7129C614.006 82.8535 613.693 82.9551 613.381 83.0176C613.068 83.084 612.709 83.1172 612.303 83.1172C611.658 83.1172 611.117 82.9844 610.68 82.7188C610.246 82.4492 609.918 82.0703 609.695 81.582C609.477 81.0938 609.367 80.5234 609.367 79.8711C609.367 79.2344 609.473 78.6621 609.684 78.1543C609.898 77.6465 610.211 77.2461 610.621 76.9531C611.035 76.6562 611.543 76.5078 612.145 76.5078ZM612.139 77.0176C611.529 77.0176 611.035 77.2207 610.656 77.627C610.281 78.0293 610.061 78.6113 609.994 79.373H613.961C613.961 78.9082 613.895 78.498 613.762 78.1426C613.629 77.7871 613.428 77.5117 613.158 77.3164C612.893 77.1172 612.553 77.0176 612.139 77.0176ZM618.051 82.6074C618.234 82.6074 618.404 82.5938 618.561 82.5664C618.721 82.5391 618.861 82.5039 618.982 82.4609V82.9531C618.857 82.9961 618.711 83.0332 618.543 83.0645C618.375 83.0996 618.189 83.1172 617.986 83.1172C617.627 83.1172 617.328 83.0508 617.09 82.918C616.852 82.7812 616.672 82.5762 616.551 82.3027C616.43 82.0254 616.369 81.6738 616.369 81.248V77.123H615.42V76.7715L616.363 76.5898L616.568 75.0898H616.961V76.6309H618.947V77.123H616.961V81.2129C616.961 81.6699 617.045 82.0176 617.213 82.2559C617.385 82.4902 617.664 82.6074 618.051 82.6074ZM624.057 73.8828V76.8594C624.057 77.0312 624.053 77.1914 624.045 77.3398C624.041 77.4883 624.033 77.6387 624.021 77.791H624.062C624.168 77.5488 624.318 77.332 624.514 77.1406C624.713 76.9492 624.957 76.7969 625.246 76.6836C625.539 76.5703 625.877 76.5137 626.26 76.5137C626.744 76.5137 627.15 76.5977 627.479 76.7656C627.811 76.9297 628.062 77.1816 628.234 77.5215C628.406 77.8613 628.492 78.2988 628.492 78.834V83H627.906V78.8691C627.906 78.2363 627.762 77.7715 627.473 77.4746C627.184 77.1777 626.764 77.0293 626.213 77.0293C625.744 77.0293 625.35 77.1211 625.029 77.3047C624.709 77.4844 624.467 77.7578 624.303 78.125C624.139 78.4883 624.057 78.9434 624.057 79.4902V83H623.465V73.8828H624.057ZM635.84 79.8066C635.84 80.2988 635.779 80.748 635.658 81.1543C635.537 81.5566 635.357 81.9043 635.119 82.1973C634.881 82.4902 634.584 82.7168 634.229 82.877C633.877 83.0371 633.467 83.1172 632.998 83.1172C632.553 83.1172 632.156 83.0391 631.809 82.8828C631.461 82.7227 631.166 82.4961 630.924 82.2031C630.686 81.9102 630.504 81.5625 630.379 81.1602C630.254 80.7539 630.191 80.3027 630.191 79.8066C630.191 79.123 630.305 78.5352 630.531 78.043C630.762 77.5469 631.09 77.168 631.516 76.9062C631.945 76.6406 632.459 76.5078 633.057 76.5078C633.674 76.5078 634.188 76.6484 634.598 76.9297C635.012 77.207 635.322 77.5938 635.529 78.0898C635.736 78.5859 635.84 79.1582 635.84 79.8066ZM630.801 79.8066C630.801 80.3652 630.881 80.8535 631.041 81.2715C631.201 81.6895 631.443 82.0156 631.768 82.25C632.096 82.4844 632.51 82.6016 633.01 82.6016C633.521 82.6016 633.941 82.4844 634.27 82.25C634.598 82.0156 634.84 81.6875 634.996 81.2656C635.152 80.8438 635.23 80.3574 635.23 79.8066C635.23 79.2715 635.156 78.7949 635.008 78.377C634.859 77.959 634.625 77.6309 634.305 77.3926C633.984 77.1504 633.566 77.0293 633.051 77.0293C632.312 77.0293 631.752 77.2754 631.369 77.7676C630.99 78.2598 630.801 78.9395 630.801 79.8066ZM642.549 76.6309V83H642.068L641.98 81.8516H641.945C641.836 82.0859 641.682 82.2988 641.482 82.4902C641.283 82.6816 641.039 82.834 640.75 82.9473C640.461 83.0605 640.125 83.1172 639.742 83.1172C639.254 83.1172 638.844 83.0332 638.512 82.8652C638.184 82.6934 637.936 82.4355 637.768 82.0918C637.6 81.748 637.516 81.3184 637.516 80.8027V76.6309H638.107V80.7441C638.107 81.3809 638.25 81.8496 638.535 82.1504C638.824 82.4512 639.246 82.6016 639.801 82.6016C640.27 82.6016 640.662 82.5117 640.979 82.332C641.299 82.1523 641.541 81.8809 641.705 81.5176C641.873 81.1504 641.957 80.6934 641.957 80.1465V76.6309H642.549ZM648.672 81.3301C648.672 81.709 648.576 82.0332 648.385 82.3027C648.197 82.5684 647.922 82.7715 647.559 82.9121C647.195 83.0488 646.748 83.1172 646.217 83.1172C645.775 83.1172 645.381 83.0781 645.033 83C644.686 82.9219 644.395 82.8262 644.16 82.7129V82.127C644.453 82.2715 644.777 82.3887 645.133 82.4785C645.488 82.5684 645.854 82.6133 646.229 82.6133C646.885 82.6133 647.357 82.502 647.646 82.2793C647.936 82.0566 648.08 81.752 648.08 81.3652C648.08 81.1113 648.008 80.9023 647.863 80.7383C647.723 80.5703 647.52 80.4258 647.254 80.3047C646.988 80.1836 646.668 80.0605 646.293 79.9355C645.902 79.8027 645.555 79.6719 645.25 79.543C644.949 79.4102 644.713 79.2363 644.541 79.0215C644.369 78.8027 644.283 78.5059 644.283 78.1309C644.283 77.6191 644.488 77.2207 644.898 76.9355C645.309 76.6504 645.859 76.5078 646.551 76.5078C646.934 76.5078 647.289 76.5449 647.617 76.6191C647.949 76.6895 648.25 76.7812 648.52 76.8945L648.309 77.3984C648.066 77.2852 647.787 77.1934 647.471 77.123C647.154 77.0527 646.838 77.0176 646.521 77.0176C646.002 77.0176 645.596 77.1094 645.303 77.293C645.01 77.4766 644.863 77.7461 644.863 78.1016C644.863 78.375 644.934 78.5898 645.074 78.7461C645.215 78.8984 645.416 79.0273 645.678 79.1328C645.939 79.2344 646.25 79.3477 646.609 79.4727C646.98 79.6016 647.322 79.7363 647.635 79.877C647.951 80.0176 648.203 80.1992 648.391 80.4219C648.578 80.6445 648.672 80.9473 648.672 81.3301ZM652.691 76.5078C653.234 76.5078 653.686 76.6348 654.045 76.8887C654.408 77.1426 654.678 77.4902 654.854 77.9316C655.033 78.373 655.123 78.8789 655.123 79.4492V79.877H650.523C650.523 80.752 650.725 81.4238 651.127 81.8926C651.533 82.3613 652.113 82.5957 652.867 82.5957C653.262 82.5957 653.604 82.5645 653.893 82.502C654.186 82.4355 654.51 82.3242 654.865 82.168V82.7129C654.553 82.8535 654.24 82.9551 653.928 83.0176C653.615 83.084 653.256 83.1172 652.85 83.1172C652.205 83.1172 651.664 82.9844 651.227 82.7188C650.793 82.4492 650.465 82.0703 650.242 81.582C650.023 81.0938 649.914 80.5234 649.914 79.8711C649.914 79.2344 650.02 78.6621 650.23 78.1543C650.445 77.6465 650.758 77.2461 651.168 76.9531C651.582 76.6562 652.09 76.5078 652.691 76.5078ZM652.686 77.0176C652.076 77.0176 651.582 77.2207 651.203 77.627C650.828 78.0293 650.607 78.6113 650.541 79.373H654.508C654.508 78.9082 654.441 78.498 654.309 78.1426C654.176 77.7871 653.975 77.5117 653.705 77.3164C653.439 77.1172 653.1 77.0176 652.686 77.0176Z" fill="white"/>
<path d="M591.142 42H589.836V27.4453C589.836 26.9268 589.836 26.4741 589.836 26.0874C589.836 25.6919 589.841 25.3403 589.85 25.0327C589.858 24.7163 589.872 24.4175 589.889 24.1362C589.652 24.3735 589.423 24.5801 589.204 24.7559C588.984 24.9316 588.703 25.1558 588.36 25.4282L585.512 27.5903L584.774 26.6411L590.021 22.7256H591.142V42ZM606.566 42H605.261V27.4453C605.261 26.9268 605.261 26.4741 605.261 26.0874C605.261 25.6919 605.266 25.3403 605.274 25.0327C605.283 24.7163 605.296 24.4175 605.314 24.1362C605.077 24.3735 604.848 24.5801 604.628 24.7559C604.409 24.9316 604.127 25.1558 603.785 25.4282L600.937 27.5903L600.199 26.6411L605.446 22.7256H606.566V42ZM617.469 42L625.445 23.9648H614.424V22.7256H626.896V23.7012L618.933 42H617.469ZM642.136 30.8862C642.136 32.3364 642.021 33.6592 641.793 34.8545C641.573 36.0498 641.244 37.1133 640.804 38.0449C640.365 38.9678 639.811 39.7456 639.143 40.3784C638.475 41.0112 637.693 41.4902 636.796 41.8154C635.9 42.1406 634.889 42.3032 633.764 42.3032C633.298 42.3032 632.811 42.2725 632.301 42.2109C631.791 42.1582 631.365 42.0835 631.022 41.9868V40.7476C631.356 40.8618 631.765 40.9585 632.248 41.0376C632.74 41.1167 633.241 41.1562 633.751 41.1562C635.254 41.1562 636.52 40.8047 637.548 40.1016C638.576 39.3896 639.363 38.3394 639.908 36.9507C640.453 35.562 640.751 33.8481 640.804 31.8091H640.712C640.466 32.2749 640.105 32.7275 639.631 33.167C639.165 33.6064 638.585 33.9668 637.891 34.248C637.196 34.5205 636.379 34.6567 635.438 34.6567C634.278 34.6567 633.281 34.4238 632.446 33.958C631.611 33.4834 630.969 32.811 630.521 31.9409C630.082 31.062 629.862 30.0205 629.862 28.8164C629.862 27.542 630.099 26.4302 630.574 25.481C631.048 24.5229 631.725 23.7803 632.604 23.2529C633.492 22.7168 634.551 22.4487 635.781 22.4487C636.854 22.4487 637.785 22.6641 638.576 23.0947C639.367 23.5166 640.026 24.1143 640.554 24.8877C641.081 25.6523 641.477 26.5444 641.74 27.564C642.004 28.5835 642.136 29.6909 642.136 30.8862ZM635.781 23.6221C634.34 23.6221 633.215 24.0747 632.406 24.98C631.606 25.8765 631.207 27.1509 631.207 28.8032C631.207 30.2622 631.571 31.418 632.301 32.2705C633.039 33.1143 634.16 33.5361 635.663 33.5361C636.691 33.5361 637.579 33.3296 638.326 32.9165C639.082 32.4946 639.662 31.9761 640.066 31.3608C640.479 30.7456 640.686 30.1392 640.686 29.5415C640.686 28.9966 640.602 28.3857 640.435 27.709C640.277 27.0322 640.009 26.3862 639.631 25.771C639.262 25.147 638.761 24.6328 638.128 24.2285C637.504 23.8242 636.722 23.6221 635.781 23.6221Z" fill="white"/>
</g>
<defs>
<filter id="filter0_d_130_140" x="0" y="0" width="715" height="106" filterUnits="userSpaceOnUse" color-interpolation-filters="sRGB">
<feFlood flood-opacity="0" result="BackgroundImageFix"/>
<feColorMatrix in="SourceAlpha" type="matrix" values="0 0 0 0 0 0 0 0 0 0 0 0 0 0 0 0 0 0 127 0" result="hardAlpha"/>
<feOffset dy="4"/>
<feGaussianBlur stdDeviation="2"/>
<feComposite in2="hardAlpha" operator="out"/>
<feColorMatrix type="matrix" values="0 0 0 0 0 0 0 0 0 0 0 0 0 0 0 0 0 0 0.25 0"/>
<feBlend mode="normal" in2="BackgroundImageFix" result="effect1_dropShadow_130_140"/>
<feBlend mode="normal" in="SourceGraphic" in2="effect1_dropShadow_130_140" result="shape"/>
</filter>
</defs>
</svg>
